<?xml version="1.0" encoding="UTF-8" standalone="no"?>
<!-- Created with Inkscape (http://www.inkscape.org/) -->

<svg
   version="1.1"
   id="svg48"
   width="879.62659"
   height="840.70392"
   viewBox="0 0 879.62658 840.70392"
   sodipodi:docname="favicon.svg"
   xmlns:inkscape="http://www.inkscape.org/namespaces/inkscape"
   xmlns:sodipodi="http://sodipodi.sourceforge.net/DTD/sodipodi-0.dtd"
   xmlns="http://www.w3.org/2000/svg"
   xmlns:svg="http://www.w3.org/2000/svg">
  <defs
     id="defs52">
    <clipPath
       clipPathUnits="userSpaceOnUse"
       id="clipPath1703">
      <ellipse
         style="fill:#00ff00;fill-opacity:1"
         id="ellipse1705"
         cx="2628.3689"
         cy="772.77051"
         rx="439.81329"
         ry="420.35196" />
    </clipPath>
    <clipPath
       clipPathUnits="userSpaceOnUse"
       id="clipPath230">
      <rect
         style="fill:#00ff00"
         id="rect232"
         width="946.52722"
         height="876.58514"
         x="2153.3242"
         y="324.37305" />
    </clipPath>
  </defs>
  <sodipodi:namedview
     id="namedview50"
     pagecolor="#ffffff"
     bordercolor="#000000"
     borderopacity="0.25"
     inkscape:showpageshadow="2"
     inkscape:pageopacity="0.0"
     inkscape:pagecheckerboard="0"
     inkscape:deskcolor="#d1d1d1"
     showgrid="false"
     inkscape:zoom="0.6449519"
     inkscape:cx="374.44653"
     inkscape:cy="779.90312"
     inkscape:window-width="1920"
     inkscape:window-height="989"
     inkscape:window-x="0"
     inkscape:window-y="30"
     inkscape:window-maximized="1"
     inkscape:current-layer="g54" />
  <g
     inkscape:groupmode="layer"
     inkscape:label="Image"
     id="g54"
     transform="translate(-71.313301,-284.53912)">
    <g
       id="g1645"
       transform="translate(-2117.2423,-67.879415)"
       clip-path="url(#clipPath1703)"
       inkscape:export-filename="g1645.png"
       inkscape:export-xdpi="61.548424"
       inkscape:export-ydpi="61.548424">
      <path
         style="fill:#000000;stroke-width:1.33333"
         d="M 2114.5111,821.70907 V 3.7090649 h 490.6667 490.6667 V 821.70907 1639.709 h -490.6667 -490.6667 z"
         id="path1622"
         clip-path="url(#clipPath230)"
         transform="translate(9.5427303,19.825319)" />
      <path
         style="fill:#00ff00;stroke-width:1.33333"
         d="m 2462.7716,990.09189 c 2.6442,-15.3257 8.0606,-55.6973 9.7493,-72.6667 l 1.924,-19.3333 -0.5599,33.3333 c -0.3249,19.3377 -1.4156,39.4914 -2.5978,48 -1.1207,8.0667 -2.0427,15.1167 -2.0488,15.6667 -0.01,0.55 15.2535,1 33.9102,1 18.6568,0 34.1889,-0.45 34.5158,-1 0.5417,-0.9111 -4.3835,-40.0007 -6.5484,-51.9726 -0.5,-2.7651 -0.5623,-4.7102 -0.1384,-4.3225 0.7203,0.6588 8.134,32.4569 11.571,49.6284 1.3626,6.8081 1.8972,7.6667 4.7733,7.6667 3.8093,0 3.7504,0.6523 1.356,-15.0144 -2.7053,-17.7008 -3.7348,-27.0476 -2.8855,-26.1984 0.6158,0.6159 8.7683,38.2663 8.7683,40.4945 0,0.395 6.6167,0.7183 14.7038,0.7183 h 14.7038 l -0.7976,-9 c -3.3666,-37.99 -9.1237,-86.0931 -12.6335,-105.5591 -2.3033,-12.7749 -0.3507,-8.7497 3.3002,6.8029 8.5763,36.535 14.0137,67.7463 17.437,100.0895 l 0.8115,7.6667 h 11.0661 11.066 l 0.834,-11 c 0.4587,-6.05 1.2135,-40.4 1.6774,-76.3333 0.7733,-59.9031 0.038,-89.3446 -2.9459,-118 -0.5437,-5.2209 -0.4339,-5.5672 0.8458,-2.6667 2.8442,6.4471 10.3856,38.1617 12.5233,52.666 3.7155,25.2095 5.1029,61.1433 4.2082,109.0007 l -0.8412,45 h 17.9994 17.9995 l 0.3544,-37 0.3544,-37 2.4382,17.3333 c 1.341,9.5333 2.7829,26.2053 3.2043,37.0489 l 0.7661,19.7156 11.4624,-0.3822 11.4624,-0.3823 0.8735,-25.6555 c 0.4804,-14.1106 1.5441,-34.2106 2.3637,-44.6667 1.8065,-23.0477 6.7961,-78.5906 7.1945,-80.0885 0.1576,-0.5926 0.055,33.1574 -0.2274,75 l -0.514,76.0774 h 25.4278 25.4277 l 0.6635,-4.3334 c 0.365,-2.3833 1.0406,-11.5333 1.5015,-20.3333 1.4736,-28.1376 3.2606,-28.8397 2.5452,-1 l -0.6596,25.6667 h 25.5797 25.5796 l -0.8578,-28.3334 c -2.5902,-85.5445 -12.765,-154.8053 -27.1662,-184.9224 -4.234,-8.8544 -7.8543,-13.0886 -33.6304,-39.3334 -15.8871,-16.1759 -30.9064,-32.4108 -33.3762,-36.0775 -2.4698,-3.6666 -4.6726,-6.8959 -4.895,-7.176 -0.2224,-0.2801 -3.7408,2.54 -7.8187,6.2669 -6.8037,6.2182 -23.902,16.1297 -25.3417,14.69 -0.336,-0.3361 2.2388,-2.7843 5.7219,-5.4406 3.4831,-2.6562 10.3699,-9.0111 15.3039,-14.1219 l 8.9711,-9.2924 -0.014,-8.463 c -0.018,-11.02684 -2.1832,-36.49827 -4.7433,-55.79631 -7.4558,-56.20367 -24.1852,-101.88069 -44.8856,-122.55336 -12.1631,-12.14683 -26.9167,-16.61901 -52.4473,-15.89807 -22.6272,0.63896 -28.3514,3.58843 -52.2335,26.91383 -14.7704,14.42601 -18.5531,18.94769 -22.4037,26.7804 -11.5651,23.52504 -17.5008,66.65339 -18.0798,131.36621 l -0.256,28.609 9.8735,8.7243 c 5.4304,4.7984 11.6695,10.0935 13.8648,11.7669 l 3.9914,3.0425 -4.6667,-1.9019 c -2.5667,-1.046 -9.9655,-4.175 -16.4418,-6.9533 l -11.775,-5.0515 -3.5283,4.5775 c -7.3075,9.4804 -17.3453,19.2449 -30.2549,29.4307 -7.3333,5.7861 -15.6727,12.4201 -18.5319,14.7421 -14.9317,12.1266 -25.1331,57.8603 -32.0623,143.738 -1.9528,24.2023 -4.7392,74.9452 -4.7392,86.3057 v 5.762 l 20.9788,-0.3672 20.9787,-0.3672 z"
         id="path1626" />
      <path
         style="fill:#000000;stroke-width:1.33333"
         d="m 2610.8395,765.32037 c -2.0475,-10.30139 -5.6446,-15.56618 -25.2508,-36.95858 -37.9859,-41.44632 -49.9182,-71.23664 -50.0962,-125.0702 -0.073,-22.2355 0.099,-23.8352 3.6592,-34 11.6393,-33.22873 42.3439,-62 66.1663,-62 12.1552,0 30.7337,11.92586 50.1071,32.16463 18.6852,19.51984 22.4427,29.30043 22.4753,58.50204 0.029,26.25959 -4.9035,52.66932 -14.4593,77.41241 -5.6893,14.73155 -9.1408,21.48671 -23.7015,46.38754 -12.1452,20.77017 -22.7491,41.86957 -24.3912,48.53338 -1.4146,5.74067 -2.6505,4.37804 -4.5089,-4.97122 z"
         id="path1628" />
      <path
         style="fill:#000000;stroke-width:1.33333"
         d="m 2545.9556,741.51534 c -6.1226,-1.64613 -16.1085,-6.50364 -16.1085,-7.8358 0,-0.22161 3.45,0.9896 7.6667,2.69158 4.2167,1.70197 13.6667,3.95629 21,5.0096 l 13.3333,1.9151 -9.3333,0.0809 c -5.1333,0.0445 -12.5845,-0.79311 -16.5582,-1.86147 z"
         id="path1630" />
      <path
         style="fill:#000000;stroke-width:2.14188"
         d="m 2654.276,737.26632 c 0.7049,-0.70287 7.8877,-4.94663 15.9614,-9.43058 8.074,-4.48398 11.7348,-5.96683 8.1352,-3.29524 -6.1304,4.54992 -26.895,15.5161 -24.0966,12.72582 z"
         id="path1632" />
    </g>
  </g>
</svg>
